<svg height="512" viewBox="0 0 74 74" width="512" xmlns="http://www.w3.org/2000/svg"><g id="Numbers"><text font-family="ArialMT, Arial" font-size="18" transform="translate(31.995 -638.544)">2<tspan x="-5.005" y="124">12</tspan><tspan x="-5.005" y="248">22</tspan><tspan x="-5.005" y="372">32</tspan><tspan x="-5.005" y="496">42</tspan><tspan x="-5.005" y="620">52</tspan><tspan x="-5.005" y="744">62</tspan><tspan x="-5.005" y="868">72</tspan><tspan x="-5.005" y="992">82</tspan><tspan x="-5.005" y="1116">92</tspan><tspan x="-10.011" y="1240">102</tspan><tspan letter-spacing="-.074em" x="-9.343" y="1364">1</tspan><tspan x="-.668" y="1364">12</tspan><tspan x="-10.011" y="1488">122</tspan><tspan x="-10.011" y="1612">132</tspan><tspan x="-10.011" y="1736">142</tspan><tspan x="-10.011" y="1860">152</tspan><tspan x="-10.011" y="1984">162</tspan><tspan x="-10.011" y="2108">172</tspan><tspan x="-10.011" y="2232">182</tspan><tspan x="-10.011" y="2356">192</tspan><tspan x="-10.011" y="2480">202</tspan><tspan x="-10.011" y="2604">212</tspan><tspan x="-10.011" y="2728">222</tspan><tspan x="-10.011" y="2852">232</tspan><tspan x="-10.011" y="2976">242</tspan><tspan x="-10.011" y="3100">252</tspan><tspan x="-10.011" y="3224">262</tspan><tspan x="-10.011" y="3348">272</tspan><tspan x="-10.011" y="3472">282</tspan><tspan x="-10.011" y="3596">292</tspan></text></g><g id="Icons"><path d="m61 72h-48a1 1 0 0 1 -1-1v-57a1 1 0 0 1 1-1h14v2h-13v55h46v-55h-12.75v-2h13.75a1 1 0 0 1 1 1v57a1 1 0 0 1 -1 1z"/><path d="m47.25 17.25h-20.25a1 1 0 0 1 -1-1v-3.25a4 4 0 0 1 4-4h14.25a4 4 0 0 1 4 4v3.25a1 1 0 0 1 -1 1zm-19.25-2h18.25v-2.25a2 2 0 0 0 -2-2h-14.25a2 2 0 0 0 -2 2z"/><path d="m41 11h-8a1 1 0 0 1 -1-1v-3a5 5 0 0 1 10 0v3a1 1 0 0 1 -1 1zm-7-2h6v-2a3 3 0 0 0 -6 0z"/><path d="m37 42a10 10 0 1 1 10-10 10.011 10.011 0 0 1 -10 10zm0-18a8 8 0 1 0 8 8 8.009 8.009 0 0 0 -8-8z"/><path d="m35.2 36.15a1 1 0 0 1 -.707-.293l-2.7-2.7 1.414-1.414 1.993 1.993 5.593-5.593 1.414 1.414-6.3 6.3a1 1 0 0 1 -.707.293z"/><path d="m19 49h17v2h-17z"/><path d="m19 56h36v2h-36z"/><path d="m19 63h36v2h-36z"/></g></svg>