<?xml version="1.0"?>
<svg xmlns="http://www.w3.org/2000/svg" viewBox="0 0 74 74" width="512" height="512"><g id="Numbers"><text transform="translate(31.995 -18.544)" font-size="18" fill="red" font-family="ArialMT, Arial">3<tspan x="-5.005" y="124">13</tspan><tspan x="-5.005" y="248">23</tspan><tspan x="-5.005" y="372">33</tspan><tspan x="-5.005" y="496">43</tspan><tspan x="-5.005" y="620">53</tspan><tspan x="-5.005" y="744">63</tspan><tspan x="-5.005" y="868">73</tspan><tspan x="-5.005" y="992">83</tspan><tspan x="-5.005" y="1116">93</tspan><tspan x="-10.011" y="1240">103</tspan><tspan x="-9.343" y="1364" letter-spacing="-0.074em">1</tspan><tspan x="-0.668" y="1364">13</tspan><tspan x="-10.011" y="1488">123</tspan><tspan x="-10.011" y="1612">133</tspan><tspan x="-10.011" y="1736">143</tspan><tspan x="-10.011" y="1860">153</tspan><tspan x="-10.011" y="1984">163</tspan><tspan x="-10.011" y="2108">173</tspan><tspan x="-10.011" y="2232">183</tspan><tspan x="-10.011" y="2356">193</tspan><tspan x="-10.011" y="2480">203</tspan><tspan x="-10.011" y="2604">213</tspan><tspan x="-10.011" y="2728">223</tspan><tspan x="-10.011" y="2852">233</tspan><tspan x="-10.011" y="2976">243</tspan><tspan x="-10.011" y="3100">253</tspan><tspan x="-10.011" y="3224">263</tspan><tspan x="-10.011" y="3348">273</tspan><tspan x="-10.011" y="3472">283</tspan><tspan x="-10.011" y="3596">293</tspan></text></g><g id="Icons"><path d="M27.36,47.591H22.231a1,1,0,0,1-.98-.8l-.841-4.215a17.825,17.825,0,0,1-5.082-2.108l-3.574,2.388a1,1,0,0,1-1.263-.125L6.864,39.1a1,1,0,0,1-.125-1.263l2.388-3.574a17.823,17.823,0,0,1-2.108-5.082L2.8,28.34a1,1,0,0,1-.8-.98V22.231a1,1,0,0,1,.8-.98l4.215-.841a17.835,17.835,0,0,1,2.108-5.082L6.739,11.754a1,1,0,0,1,.125-1.263l3.628-3.628a1,1,0,0,1,1.263-.125l3.574,2.388A17.835,17.835,0,0,1,20.41,7.019L21.251,2.8a1,1,0,0,1,.98-.8H27.36a1,1,0,0,1,.98.8l.841,4.215a17.823,17.823,0,0,1,5.082,2.108l3.574-2.388a1,1,0,0,1,1.263.125l3.628,3.628a1,1,0,0,1,.125,1.263l-2.388,3.574a17.825,17.825,0,0,1,2.108,5.082l4.215.841a1,1,0,0,1,.8.98V27.36a1,1,0,0,1-.8.98l-4.215.841a17.828,17.828,0,0,1-2.108,5.082l2.388,3.574a1,1,0,0,1-.125,1.263L39.1,42.728a1,1,0,0,1-1.263.125l-3.574-2.388a17.828,17.828,0,0,1-5.082,2.108l-.841,4.215A1,1,0,0,1,27.36,47.591Zm-4.308-2H26.54l.808-4.048a1,1,0,0,1,.78-.784,15.862,15.862,0,0,0,5.6-2.322,1,1,0,0,1,1.107,0l3.433,2.294,2.468-2.468-2.294-3.433a1,1,0,0,1,0-1.107,15.862,15.862,0,0,0,2.322-5.6,1,1,0,0,1,.784-.78l4.048-.808V23.052l-4.048-.808a1,1,0,0,1-.784-.78,15.87,15.87,0,0,0-2.322-5.6,1,1,0,0,1,0-1.107l2.294-3.433L38.265,8.858l-3.433,2.294a1,1,0,0,1-1.108,0,15.853,15.853,0,0,0-5.6-2.323,1,1,0,0,1-.78-.784L26.54,4H23.052l-.808,4.048a1,1,0,0,1-.78.784,15.862,15.862,0,0,0-5.6,2.323,1,1,0,0,1-1.107,0L11.326,8.858,8.858,11.326l2.294,3.433a1,1,0,0,1,0,1.107,15.862,15.862,0,0,0-2.323,5.6,1,1,0,0,1-.784.78L4,23.052V26.54l4.048.808a1,1,0,0,1,.784.78,15.853,15.853,0,0,0,2.323,5.6,1,1,0,0,1,0,1.108L8.858,38.265l2.467,2.468,3.433-2.294a1,1,0,0,1,1.107,0,15.87,15.87,0,0,0,5.6,2.322,1,1,0,0,1,.78.784Z"/><path d="M24.8,36.052A11.257,11.257,0,1,1,36.052,24.8,11.27,11.27,0,0,1,24.8,36.052Zm0-20.514A9.257,9.257,0,1,0,34.052,24.8,9.268,9.268,0,0,0,24.8,15.539Z"/><path d="M57.815,72a1,1,0,0,1-.85-.472l-1.738-2.8a14.385,14.385,0,0,1-4.185-.136L49.122,71.27A1,1,0,0,1,47.9,71.6l-3.72-1.687a1,1,0,0,1-.561-1.138l.748-3.208a14.4,14.4,0,0,1-2.86-3.058l-3.25.536a1,1,0,0,1-1.1-.635l-1.438-3.825a1,1,0,0,1,.408-1.2l2.8-1.738a14.417,14.417,0,0,1,.136-4.185l-2.676-1.921a1,1,0,0,1-.328-1.226l1.687-3.72a1,1,0,0,1,1.138-.561l3.208.748a14.386,14.386,0,0,1,3.058-2.86l-.536-3.25a1,1,0,0,1,.635-1.1l3.826-1.438a1,1,0,0,1,1.2.408l1.738,2.8a14.4,14.4,0,0,1,4.185.136L58.114,36.8a1,1,0,0,1,1.226-.328l3.72,1.687a1,1,0,0,1,.561,1.137L62.874,42.5a14.386,14.386,0,0,1,2.86,3.058l3.25-.536a1,1,0,0,1,1.1.635l1.438,3.825a1,1,0,0,1-.408,1.2l-2.8,1.738a14.385,14.385,0,0,1-.136,4.185l2.676,1.921a1,1,0,0,1,.328,1.226L69.5,63.476a1,1,0,0,1-1.138.561l-3.208-.748a14.4,14.4,0,0,1-3.058,2.86l.536,3.25a1,1,0,0,1-.635,1.1l-3.825,1.438A1,1,0,0,1,57.815,72Zm-2.081-5.349a1,1,0,0,1,.85.472l1.647,2.651,2.289-.86-.508-3.08a1,1,0,0,1,.455-1.01,12.432,12.432,0,0,0,3.47-3.244,1,1,0,0,1,1.036-.387l3.039.708,1.009-2.226-2.535-1.82a1,1,0,0,1-.392-1.034,12.429,12.429,0,0,0,.154-4.747,1,1,0,0,1,.459-1.008l2.651-1.647-.86-2.289-3.08.508a1.006,1.006,0,0,1-1.01-.455,12.425,12.425,0,0,0-3.244-3.469,1,1,0,0,1-.387-1.036l.708-3.04-2.226-1.009-1.82,2.535a1,1,0,0,1-1.034.392A12.418,12.418,0,0,0,51.66,41.4a.992.992,0,0,1-1.008-.459L49,38.292l-2.29.861.508,3.08a1,1,0,0,1-.455,1.01A12.425,12.425,0,0,0,43.3,46.486a1,1,0,0,1-1.037.387l-3.04-.708-1.009,2.226,2.535,1.82a1,1,0,0,1,.392,1.034,12.447,12.447,0,0,0-.154,4.747A1,1,0,0,1,40.527,57l-2.651,1.647.86,2.289,3.08-.508a1,1,0,0,1,1.01.455,12.439,12.439,0,0,0,3.244,3.47,1,1,0,0,1,.387,1.036l-.708,3.039,2.226,1.009,1.82-2.535a1,1,0,0,1,1.035-.392,12.443,12.443,0,0,0,4.747.154A.964.964,0,0,1,55.734,66.651Z"/><path d="M53.613,63.207a9.174,9.174,0,1,1,8.355-5.387h0a9.191,9.191,0,0,1-8.355,5.387Zm.015-16.342a7.169,7.169,0,1,0,6.519,10.129h0a7.168,7.168,0,0,0-6.519-10.129Z"/></g></svg>
